<svg width="497" height="373" viewBox="0 0 497 373" fill="none" xmlns="http://www.w3.org/2000/svg">
<path fill-rule="evenodd" clip-rule="evenodd" d="M428.583 332.772C431.071 334.053 433.397 334.052 435.845 335.049C438.274 336.039 438.907 340.143 440.985 340.633C431.355 341.646 421.87 343.795 412.123 342.727C412.967 339.285 411.451 335.763 413.482 332.534C418.91 327.395 422.439 329.608 428.583 332.772ZM387.918 96.2425C388.043 98.6622 388.222 99.6238 389.938 101.185C391.283 102.408 392.04 100.584 392.167 102.973C392.241 104.351 390.81 105.042 390.257 106.156C387.496 111.705 389.401 118.871 390.758 124.398C393.509 135.605 400.228 147.79 395.494 159.181C395.016 160.33 394.633 162.82 393.711 163.699C392.495 163.056 391.607 163.337 391.047 164.542C390.711 164.92 390.376 165.298 390.04 165.675C387.912 167.644 385.647 168.376 382.823 167.329C377.129 165.22 376.187 158.602 376.158 153.392C376.124 147.65 377.346 141.636 378.653 136.042C379.282 133.349 380.251 130.222 378.448 127.681C376.744 125.281 374.639 126.634 372.962 125.562C371.176 124.422 373.748 116.041 371.989 113.818C368.917 109.938 367.847 119.431 367.798 121.37C367.745 123.493 367.86 125.971 368.86 127.897C369.646 129.409 372.204 130.736 372.642 132.263C373.053 133.69 371.253 137.397 370.975 138.928C370.546 141.288 370.398 143.698 370.275 146.089C369.86 154.168 371.126 162.671 376.684 168.94C379.12 171.689 383.25 174.811 387.114 174.31C390.524 173.868 393.951 172.026 397.131 170.774C399.27 178.996 402.483 186.959 405.906 194.724C408.882 201.474 411.679 208.387 414.804 215.055C421.391 229.108 432.084 241.079 440.438 254.073C448.504 266.618 453.027 281.013 454.111 295.823C454.368 299.325 453.346 304.117 454.161 307.391C454.925 310.461 455.596 311.794 455.096 315.142C454.54 318.862 453.462 322.293 453.925 326.078C454.336 329.437 455.935 334.441 454.187 337.552C452.087 335.313 449.992 334.259 448.718 331.273C447.425 328.242 447.934 325.752 445.002 324.42C442.498 323.282 440.702 323.53 438.492 321.667C435.807 319.404 433.978 316.639 432.656 313.399C430.398 307.871 430.071 301.879 431.98 296.202C433.51 291.65 437.98 283.129 444.246 286.179C443.315 284.266 442.696 282.186 440.92 280.944C439.374 279.861 437.062 279.508 435.335 278.277C433.404 276.901 431.218 275.433 429.063 274.426C428.227 274.036 427.435 273.84 426.571 273.572C425.534 273.252 423.568 273.482 423.44 273.463C419.738 272.903 415.611 271.12 413.351 268.433C411.649 266.411 410.146 264.523 408.847 262.209C407.161 259.205 406.512 259.387 403.277 258.673C398.576 257.637 395.593 256.931 391.833 253.441C387.662 249.57 384.61 244.746 381.558 239.997C379.77 237.214 378.199 237.044 375.285 235.932C373.59 235.287 371.244 232.395 369.702 232.181C369.256 232.118 367.124 233.09 366.403 233.206C365.113 233.415 363.994 233.377 362.703 233.242C359.739 232.93 357.12 232.145 355.127 229.825C348.991 222.679 347.12 205.834 355.521 199.755C357.122 198.597 359.352 198.064 360.296 196.14C361.38 193.933 360.887 189.774 360.8 187.447C360.701 184.791 360.576 181.9 360.18 179.282C359.997 178.078 359.861 177.572 359.371 176.367C358.397 173.978 358.112 174.325 356.107 173.751C353.247 172.932 351.953 173.254 350.2 170.537C348.801 168.37 348.147 165.64 348.019 163.078C347.901 160.687 348.978 158.478 348.079 156.313C346.761 153.144 344.319 150.746 343.248 147.278C342.345 144.358 340.014 137.839 342.312 135.145C343.342 133.937 345.17 133.761 346.191 132.145C347.969 129.331 348.687 127.793 351.327 125.575C353.274 123.939 355.144 121.501 357.491 120.5C359.799 119.516 361.978 121.1 363.852 120.666C365.895 120.192 365.358 115.451 365.925 113.316C366.689 110.437 368.328 107.436 370.314 105.19C370.977 104.44 371.803 104.296 372.319 103.298C373.019 101.947 372.741 100.023 373.286 98.5456C373.937 96.7806 375.517 93.7423 377.283 92.7748C382.443 89.9481 383.993 97.2318 387.918 96.2425ZM375.843 305.265C376.571 307.228 376.169 310.382 377.007 312.072C377.674 313.418 380.354 314.271 381.668 315.877C384.481 319.314 385.552 324.834 384.531 329.078C381.089 328.228 378.787 327.684 375.286 328.132C374.933 320.44 375.263 312.954 375.843 305.265ZM333.295 311.062C335.637 313.676 336.799 316.756 336.461 320.25C336.34 321.494 335.96 323.237 335.594 324.432C335.191 325.744 333.192 328.199 333.968 328.901C331.783 328.771 329.215 329.025 327.641 327.611C326.227 326.342 325.239 323.071 324.665 321.338C325.768 319.134 326.872 316.93 327.976 314.727C328.694 315.868 330.803 318.846 332.545 317.893C333.857 317.176 332.798 312.512 333.295 311.062ZM415.505 290.689C418.185 293.181 419.101 297.675 418.965 301.163C419.009 305.971 417.345 315.594 411.099 315.917C406.08 316.176 400.726 308.982 400.162 304.536C399.543 299.662 401.154 288.005 407.54 287.003C409.891 286.633 413.81 289.113 415.505 290.689ZM370.638 296.905C370.744 300.057 370.797 303.089 370.547 306.23C370.339 308.856 371.034 311.957 370.446 314.471C366.733 310.314 361.841 305.787 361.99 299.676C362.129 293.899 366.912 294.391 370.638 296.905ZM333.211 227.451L336.32 230.86C336.409 235.65 336.314 240.387 337.771 245.006C339.305 249.866 341.875 254.55 344.419 258.944C349.365 267.485 350.544 275.541 351.14 285.309C341.839 281.139 336.767 266.89 333.698 257.977C332.073 253.259 330.388 248.536 328.855 243.788C327.344 239.106 324.672 232.988 326.431 228.055C329.81 230.541 331.271 231.822 333.211 227.451ZM391.171 261.072C395.713 264.686 396.057 270.217 397.687 275.272C396.747 276.023 395.714 276.684 394.865 277.541C394.341 278.071 393.105 280.237 392.702 280.459C391.093 281.349 389.687 280.207 388.115 278.771C385.021 275.943 383.089 269.941 383.234 265.79C383.403 260.942 386.829 257.615 391.171 261.072ZM454.717 239.833C460.62 243.217 459.08 252.58 458.344 257.861C457.882 261.171 458.906 264.539 458.835 267.688C458.755 271.242 456.912 270.506 455.733 272.712C454.71 270.036 452.832 266.816 452.405 264.011L451.727 262.236C452.301 262.005 452.607 261.604 452.642 261.033C452.883 259.673 452.88 258.287 452.956 256.901C453.268 251.173 453.701 245.482 454.717 239.833ZM364.775 246.156C364.121 248.649 363.643 253.34 359.972 251.894C357.076 250.753 356.376 246.146 356.37 243.578C356.365 241.47 356.711 237.598 359.658 237.471C363.275 237.316 364.566 243.721 364.775 246.156ZM336.833 176.75C334.391 180.664 332.696 186.445 333.85 191.079C335.061 195.945 338.828 197.123 342.178 193.542C344.943 197.898 339.275 205.656 334.206 201.514C333.111 200.62 332.376 198.907 331.021 198.349C329.911 197.891 328.927 198.513 327.793 198.255C324.305 197.462 322.988 194.034 321.618 191.157C321.994 188.811 322.393 186.486 322.9 184.164C323.17 182.93 323.451 181.697 323.724 180.463C324.188 178.366 324.044 178.628 325.563 177.589C329.569 174.849 332.325 174.714 336.833 176.75ZM338.901 178.863L341.832 185.384C340.235 184.999 338.496 189.794 337.453 190.729C336.965 186.739 338.133 182.743 338.901 178.863ZM337.277 156.588C339.927 157.705 340.454 162.546 340.548 164.888C339.819 167.353 339.139 170.507 336.059 168.771C334.004 167.612 333.123 163.795 333.054 161.71C332.965 159.095 333.947 155.183 337.277 156.588Z" fill="#3F725C"/>
<path fill-rule="evenodd" clip-rule="evenodd" d="M317.427 99.9541C316.336 100.445 318.419 104.114 318.742 104.788C319.588 106.545 320.62 110.176 322.623 109.176C320.891 106.102 319.159 103.028 317.427 99.9541ZM61.145 312.848C59.6851 312.2 57.7325 317.773 57.4723 318.906C56.7467 322.06 57.3539 324.179 59.8773 326.218C58.8328 321.71 60.084 317.22 61.145 312.848ZM398.155 74.1928C396.339 71.8344 393.717 67.4555 390.048 69.7737C388.6 70.6896 387.485 73.6256 386.591 75.0598C385.188 77.3114 383.83 79.4789 382.762 81.903C384.576 81.157 385.645 79.5348 387.267 78.648C388.375 78.0423 389.385 77.984 390.453 77.5426C392.813 76.5673 396.045 75.611 398.155 74.1928ZM102.131 306.565C103.113 310.413 104.022 314.249 104.782 318.146C105.296 320.783 107.023 324.509 106.122 327.089C108.457 326.775 110.792 326.461 113.127 326.147C111.395 322.202 110.483 317.993 109.969 313.732C109.654 311.124 110.058 310.38 108.094 308.929C106.573 307.805 103.896 307.265 102.131 306.565ZM89.2158 159.298C93.7053 163.794 97.6318 168.92 102.403 173.11C104.882 175.287 107.423 177.404 109.967 179.504C112.125 181.284 115.556 185.209 118.364 185.754C118.711 184.32 119.531 181.97 119.311 180.499C120.131 179.651 119.876 179.032 118.549 178.64C117.736 178.015 116.933 177.38 116.137 176.733C113.016 174.126 110.063 171.295 107.106 168.506C104.166 165.735 101.447 162.836 98.8947 159.705C97.5503 158.056 96.764 156.402 94.559 155.918C91.9396 155.342 91.0679 157.386 89.2158 159.298ZM178.943 326.267C178.816 328.711 184.821 330.208 186.646 330.355C191.578 330.751 194.781 328.587 196.478 324.318C200.011 315.435 205.669 307.608 208.035 298.267C208.737 295.495 209.344 294.234 206.843 292.821C205.817 292.242 203.144 290.951 202.028 291.688C200.966 292.39 200.095 295.547 199.412 296.695C198.328 298.518 197.094 300.252 195.917 302.016C190.408 310.268 184.857 318.304 178.943 326.267ZM107.673 203.925L130.729 217.118C131.691 213.796 132.133 210.333 133.034 206.986C133.676 204.606 135.327 201.245 135.222 199.157C135.066 196.038 132.653 191.898 131.601 188.925C130.289 185.221 128.978 181.516 127.666 177.811C125.89 179.51 123.846 180.697 123.824 182.912C123.812 184.177 124.655 184.967 124.166 186.401C123.823 187.407 122.364 188.742 121.659 189.49C119.601 191.675 119.665 191.784 117.502 189.741C114.226 194.469 110.949 199.197 107.673 203.925ZM133.039 265.78C133.369 262.602 133.792 259.554 134.507 256.436C134.946 254.52 136.801 250.585 136.191 248.781C135.743 247.454 133.077 246.301 132.039 245.579C129.035 243.491 126.103 241.294 123.129 239.164C120.522 237.295 117.876 235.472 115.318 233.536C112.948 231.744 111.16 229.515 108.292 228.746C105.783 228.074 102.6 228.513 100.001 228.426C96.514 228.31 92.9729 228.272 89.489 228.442C77.7974 229.015 64.6997 228.197 53.4517 231.46C48.1356 233.002 44.7086 233.91 41.7368 238.949C38.3 244.776 35.3636 250.832 32.8636 257.126C32.4986 258.046 31.6735 259.372 31.7042 260.376C31.7652 262.294 32.451 261.852 34.289 262.946C36.2751 264.128 38.2218 265.53 40.1191 266.861C43.3724 269.143 47.4115 271.525 50.7866 273.304C54.8476 275.445 58.9386 277.365 63.0694 279.521C65.6869 280.887 68.3962 282.004 70.9637 283.506C73.751 285.136 76.8718 285.6 79.8767 286.873C89.1808 290.815 98.1856 294.459 107.316 298.956C116.228 303.345 125.242 307.055 134.361 310.927C146.146 315.931 157.814 320.56 170.104 324.02C171.004 324.274 172.896 325.167 173.785 325.127C175.685 325.039 176.116 323.65 177.257 322.084C179.5 319.007 181.661 315.871 183.807 312.725C188.461 305.902 193.012 299.003 198.023 292.433C183.824 288.468 170.658 281.153 158.176 273.646C157.645 275.141 157.222 278.452 155.518 278.951C153.412 279.57 151.881 276.65 150.937 275.307C150.044 277.533 148.515 285.043 145.655 284.879C141.704 284.651 142.402 278.428 141.909 275.959C139.731 278.856 137.207 282.187 134.247 277.732C132.195 274.643 132.423 269.223 133.039 265.78ZM297.553 230.29C295.722 229.718 293.903 229.209 292.112 228.567C291.641 227.568 290.859 227.265 289.767 227.658C288.872 227.738 288.001 227.627 287.155 227.325C283.415 226.685 279.271 225.855 275.697 224.776C272.514 223.814 269.513 222.965 266.279 222.243C264.358 221.815 255.804 219.393 254.54 220.818C254.151 221.257 254.82 226.573 254.726 227.521C254.559 229.205 254.476 231.979 253.409 233.382C253 233.92 251.442 234.516 250.879 234.935C249.05 236.297 247.359 237.988 245.54 239.4C241.567 242.481 237.697 245.679 233.643 248.66C230.778 250.766 227.498 251.809 224.316 253.339C226.58 253.745 231.011 251.564 233.296 250.888C236.256 250.012 239.161 249.038 242.189 248.236C248.397 246.591 254.757 244.734 261.066 242.983C264.94 241.907 269.033 240.787 272.789 239.363C274.456 238.731 275.764 237.262 276.864 238.757C277.742 239.951 276.68 241.521 276.005 242.405C272.066 247.563 261.37 248.818 255.645 250.958C249.184 253.372 242.809 255.915 236.156 257.611C228.387 259.592 219.953 261.108 212.714 264.587C206.707 267.473 199.902 268.592 193.516 270.286C187.518 271.877 180.406 272.195 174.738 274.895C177.186 276.83 180.809 277.84 183.663 279.141C187.156 280.733 190.686 282.186 194.142 283.874C195.612 284.592 197.151 285.66 198.639 286.256C200.528 287.015 200.286 286.615 202.237 286.461C205.274 286.222 209.371 285.676 211.838 287.888C214.814 290.557 212.928 293.481 213.365 296.746C213.665 298.985 213.818 298.626 216.302 298.968C218.588 299.282 220.872 299.648 223.128 300.138C225.912 300.742 228.762 301.755 231.474 302.628C235.68 303.983 236.137 305.577 240.521 303.828C253.005 298.849 265.918 294.756 278.483 290.045C284.27 287.875 290.082 283.689 295.53 280.544C302.519 276.509 308.838 272.144 313.57 265.426C315.727 262.365 317.976 257.193 317.523 253.391C317.117 249.992 314.604 246.213 312.984 243.29C310.915 239.558 309.094 238.11 305.928 235.63C303.728 233.907 300.328 230.268 297.553 230.29ZM158.513 259.178C158.706 261.055 157.611 268.79 158.696 269.98C160.553 272.015 165.106 269.64 166.868 269.034C172.591 267.065 179.244 267.496 185.072 265.937C190.726 264.424 196.256 262.465 201.941 260.924C204.991 260.097 207.886 258.801 210.886 257.817C214.225 256.72 217.953 256.12 221.05 254.471C220.667 253.517 207.266 255.811 205.743 255.935C200.454 256.364 195.473 255.548 190.26 254.589C178.76 252.472 167.924 247.453 156.573 244.197C157.105 249.436 171.837 250.479 170.082 256.558C169.592 258.253 163.002 261.023 160.822 259.959C156.394 257.799 161.811 254.758 164.018 254C160.658 252.072 157.443 249.981 154.376 247.605C151.092 245.062 149.679 241.494 147.92 237.813C144.241 230.116 135.536 225.639 128.774 220.847C121.462 215.666 113.677 211.261 106.369 206.092C105.065 205.169 104.456 205.592 103.998 203.907C103.507 202.103 105.309 199.81 106.183 198.434C108.48 194.816 111.157 191.392 114.192 188.363C110.278 185.697 106.049 183.496 102.379 180.479C98.6578 177.42 95.5788 173.686 92.2963 170.184C87.0526 181.602 79.7034 192.192 73.9321 203.389C71.6524 207.812 70.4472 214.501 73.9141 218.787C77.5625 223.297 84.3657 221.541 89.5157 221.78C94.9512 222.033 99.9095 222.649 105.271 224.192C107.696 224.89 109.904 224.684 112.235 225.805C114.969 227.119 117.658 228.807 120.259 230.365C125.374 233.429 130.153 237.264 134.983 240.76C136.964 242.194 147.707 250.694 139.21 249.381C139.21 257.335 137.817 265.481 137.087 273.397C139.102 270.989 140.539 268.541 141.758 265.648C142.483 263.927 142.492 259.535 144.909 260.576C148.544 262.142 145.713 273.649 145.713 276.761C146.613 275.02 147.244 273.144 147.893 271.299C148.384 269.9 148.998 265.936 150.023 264.998C153.454 261.859 153.935 270.419 153.935 272.205C155.047 269.05 155.251 265.682 155.363 262.348C155.407 261.033 155.082 258.986 155.414 257.714C155.966 255.593 155.901 255.731 158.12 254.835C158.251 256.282 158.382 257.73 158.513 259.178ZM264.516 326.302C264.788 328.993 265.829 330.941 264.061 333.362C267.479 333.117 270.844 332.816 274.267 332.903C277.016 332.973 281.127 333.602 283.691 332.424C284.736 331.944 285.092 332.77 285.629 331.853C286.139 330.982 284.941 328.09 284.796 327.373C284.105 323.93 283.768 320.399 283.14 316.935C282.709 314.554 281.443 309.872 283.035 307.622C285.377 304.312 286.409 308.975 287.019 311.046C289.029 317.867 288.913 324.346 288.913 331.354C291.94 331.354 295.917 330.031 298.836 329.234C302.863 328.133 307.163 327.001 311.065 325.563C314.745 324.208 317.986 322.23 320.313 319.045C322.053 316.664 325.912 310.788 324.953 308.154C323.778 304.925 318.174 302.705 315.181 302.35C311.299 301.889 307.319 302.67 303.346 302.998C299.093 303.349 294.967 304.296 290.759 304.753C286.672 305.195 281.187 306.559 277.217 305.537C277.113 307.171 278.479 309.368 278.955 311.032C279.578 313.213 280.135 315.415 280.641 317.626C281.184 319.993 284.539 328.503 281.487 330.204C277.905 332.201 276.195 323.65 275.749 321.565C274.685 316.595 273.771 311.629 274.885 306.632C270.312 305.807 264.798 307.032 260.082 307.357C261.839 313.55 262.972 320.035 264.516 326.302ZM67.5725 328.994C69.1625 329.702 71.3476 329.322 73.0759 329.458C75.7769 329.67 78.5055 330.159 81.2245 330.072C85.3733 329.94 89.7225 329.415 93.8747 328.94C91.5062 324.665 90.069 320.618 89.7735 315.719C89.6672 313.959 88.7338 303.045 91.9789 303.512C93.5446 303.737 93.2122 313.057 93.516 314.773C93.9577 317.264 94.5275 319.814 95.221 322.252C95.7244 324.02 97.4367 326.669 96.9979 328.581C99.0912 328.242 101.185 327.902 103.279 327.563C101.651 324.315 100.462 321.404 99.8523 317.782C99.5577 316.033 99.7455 313.857 99.1742 312.197C98.8141 311.15 97.9929 310.166 97.8832 309.288C97.7565 308.276 98.8651 305.787 98.4549 304.888C98.0521 304.004 95.2473 303.186 94.2644 302.698C91.5557 301.355 89.9681 301.015 86.9322 301.787C81.0764 303.276 71.8504 304.333 67.4832 308.35C63.1568 312.329 61.5823 325.751 67.5725 328.994ZM323.313 135.019C324.934 134.836 326.539 134.723 328.168 134.639C325.787 131.287 323.625 127.783 321.651 124.176C320.684 122.409 319.77 120.614 318.896 118.8C317.892 116.718 317.919 115.358 315.738 114.945C312.718 114.372 308.678 115.516 305.571 115.386C303.17 115.285 297.78 113.025 295.846 113.844C297.61 117.46 296.194 123.087 296.263 126.98C296.332 130.851 295.852 134.593 295.171 138.411C299.29 138.411 304.446 136.987 308.604 136.352C313.445 135.612 318.381 135.573 323.313 135.019ZM257.923 333.751C259.51 333.547 261.018 333.484 262.62 333.484C259.011 327.63 256.286 321.084 256.256 314.109C256.252 313.196 257.348 307.953 256.986 307.517C256.278 306.668 253.345 307.339 252.541 307.419C249.255 307.748 245.602 307.723 242.508 308.907C240.373 309.725 240.349 309.231 239.501 311.746C238.998 313.233 238.637 314.931 238.627 316.495C238.607 319.655 239.614 323.349 240.916 326.194C242.155 328.903 244.114 331.808 246.808 333.262C249.911 334.939 254.284 333.941 257.923 333.751ZM290.733 116.275C290.109 113.943 290.379 114.469 288.304 114.18C287.867 114.119 283.115 114.217 282.841 114.496C282.527 114.818 282.647 119.566 282.606 120.11C282.465 121.972 282.257 123.83 282.054 125.687C281.232 133.224 279.67 140.521 278.499 147.997C281.392 146.201 285.573 148.65 288.043 146.705C289.996 145.169 289.703 140.253 289.849 138.084C290.336 130.824 290.503 123.546 290.733 116.275ZM395.178 107.472C394.918 107.891 394.658 108.309 394.398 108.727C395.408 109.375 401.32 102.784 402.635 101.604C404.386 100.034 407.157 97.9376 407.947 95.6418C408.865 92.974 407.962 88.7622 407.74 86.0035C407.581 84.0293 407.919 81.2988 406.31 79.9195C404.83 78.6504 401.183 78.6844 399.43 78.9559C394.168 79.7708 391.004 84.1002 388.349 88.2255C391.045 87.8938 400.552 83.5509 401.656 85.8996C403.26 89.312 393.276 92.363 392.289 95.3572C394.333 96.0794 398.84 93.278 397.572 97.939C397.356 98.5913 396.978 99.1314 396.44 99.5593C395.507 99.89 395.286 100.513 395.777 101.429C395.36 103.255 395.445 105.565 395.178 107.472ZM455.733 272.712C455.762 273.819 455.863 274.877 456.767 275.658C458.771 269.306 459.397 262.951 460.228 256.346C461.059 249.738 461.943 242.967 462.074 236.366C462.222 228.967 461.524 220.919 460.328 213.61C459.392 207.895 458.668 200.864 455.264 196C457.197 208.604 456.596 220.554 455.292 233.202C454.6 239.918 453.623 246.581 453.175 253.327C453.057 255.108 453.018 256.911 452.864 258.689C452.773 259.737 451.736 261.721 451.727 262.236C451.676 265.091 454.731 270.09 455.733 272.712ZM352.86 262.896C354.468 266.598 356.296 270.245 357.26 274.183C358.278 278.34 357.84 282.212 358.003 286.424C358.273 293.414 357.713 300.362 357.811 307.362C357.895 313.327 357.666 319.144 357.726 325.046C357.764 328.78 357.559 332.5 357.572 336.232C357.572 336.22 357.721 339.581 357.464 339.752C356.312 340.517 355.054 339.43 354.701 338.384L351.287 342.249C353.076 341.799 355.277 340.859 357.116 340.776C357.82 340.517 358.522 340.509 359.221 340.754C359.914 341.174 360.428 341.759 360.763 342.509C365.583 343.537 368.475 339.244 369.341 335.405C371.219 327.078 370.543 318.856 370.406 310.448C370.111 292.183 373.011 274.027 372.737 255.76C372.684 252.225 372.549 248.732 373.08 245.204C374.065 238.649 375.52 244.649 375.754 247.742C376.456 257.037 377.678 266.628 377.005 275.98C376.401 284.407 376.457 292.912 376.037 301.364C375.591 310.348 374.873 319.141 375.286 328.132C377.697 327.824 385.452 327.364 386.259 330.753C386.963 333.709 384.129 332.615 382.657 332.49C380.27 332.287 377.939 332.848 375.33 332.38C375.522 336.355 376.07 341.687 372.519 344.372C370.773 345.692 367.881 346.884 365.84 347.663C363.841 348.426 360.454 350.117 358.371 350.024C356.897 349.959 356.329 349.165 354.712 349.291C352.312 349.48 350.235 351.087 347.691 349.76C342.867 347.243 345.238 339.925 348.284 336.992C349.07 336.235 349.952 335.408 351.006 335.039C351.507 334.864 353.603 335.076 353.845 334.813C354.737 333.844 353.623 328.176 353.504 327.1C352.879 321.458 352.197 315.695 351.94 310.027C351.699 304.699 351.431 299.359 351.247 294.028C351.208 292.867 351.722 290.481 351.236 289.466C350.428 287.78 346.883 286.707 345.345 285.921C346.715 299.356 348.729 313.796 343.768 326.593C342.782 329.134 341.677 332.761 339.179 334.174C336.825 335.507 331.28 335.319 328.459 335.477C325.426 335.647 322.456 334.939 320.785 332.088C319.47 329.845 320.258 327.155 322.958 326.177C324.575 325.591 324.89 325.968 326.306 326.664C326.613 327.163 326.829 327.7 326.954 328.274H328.042C329.518 328.932 335.415 329.669 337.036 328.618C338.916 327.402 339.324 324.111 340.126 322.156C341.614 318.524 342.008 315.576 342.548 311.694C343.393 305.617 342.537 298.571 342.553 292.24C342.558 290.457 342.565 288.673 342.568 286.89C342.571 284.197 342.806 284.214 341.27 282.275C338.956 279.353 336.318 276.367 333.84 273.566C335.182 281.749 334.633 290.365 334.1 298.518C333.801 303.098 333.182 307.763 332.898 312.282C332.812 313.64 333.787 317.385 332.211 317.985C330.612 318.594 328.622 315.753 327.976 314.727C324.45 321.767 320.242 328.557 312.968 332.2C309.228 334.072 305.334 334.917 301.252 335.651C297.47 336.332 293.976 337.574 290.248 338.159C282.532 339.371 275.425 339.543 267.66 339.278C260.335 339.028 253.32 340.382 246.018 338.677C243.168 338.013 240.289 336.791 238.341 334.608C237.278 333.417 236.807 331.541 235.735 330.443C235.493 329.022 234.658 328.584 233.228 329.128C232.33 329.168 231.436 329.139 230.545 329.039C223.221 328.654 215.082 329.083 207.985 326.99C205.291 326.195 202.284 324.886 203.628 321.513C204.802 318.564 208.043 319.46 210.701 319.717C218.422 320.466 226.021 321.831 233.853 322.518C233.601 318.423 233.818 314.246 235.422 310.415C229.989 309.733 224.357 308.704 219.187 306.968C217.591 306.432 216.002 305.875 214.418 305.302C211.808 304.357 212.35 304.113 210.839 305.761C208.939 307.832 207.776 312.153 206.4 314.655C204.851 317.471 203.365 320.255 202.06 323.195C200.824 325.977 199.903 329.703 198.021 332.1C193.881 337.373 184.319 337.83 178.692 335.759C175.935 334.744 174.941 334.585 173.27 332.113C171.44 329.404 170.985 329.246 167.613 328.878C161.524 328.215 155.778 326.685 150.074 324.573C144.048 322.343 137.86 320.604 131.852 318.195C126.227 315.94 120.79 313.672 114.97 311.912C114.28 316.304 117.141 321.258 117.141 325.786C120.528 325.447 123.685 325.15 127.042 324.611C128.239 324.419 135.78 322.725 136.516 323.724C139.583 327.89 125.628 329.849 123.447 330.399C116.457 332.164 109.33 333.804 102.296 335.168C95.1167 336.561 88.1179 337.948 80.8299 338.198C68.4976 338.621 51.4875 337.908 52.0762 321.694C52.3072 315.341 54.9228 308.447 59.9277 304.303C63.0418 301.725 66.925 300.308 70.7321 299.141C72.1387 298.71 79.5486 297.703 79.7738 297.148C77.6858 295.651 74.117 295.26 71.6398 294.106C69.278 293.006 66.7858 292.596 64.3682 291.487C59.5375 289.271 54.8718 286.561 50.4051 283.821C46.8529 281.642 43.2613 279.235 39.991 276.644C37.3924 274.586 34.902 272.606 32.8247 270.253C31.7375 269.022 29.8131 267.932 28.9424 266.872C25.8847 263.148 29.1094 255.738 30.4116 251.403C32.3137 245.067 34.852 238.324 38.5956 232.835C42.0382 227.787 45.8763 224.386 52.0515 223.203C57.7509 222.112 63.482 221.766 69.311 221.46C68.3316 217.731 66.9527 215.1 67.3027 211.01C67.6327 207.153 69.579 203.321 71.1064 199.808C73.9461 193.278 76.6253 186.886 80.5091 180.874C82.6436 177.57 85.0413 174.434 87.3715 171.268C87.7471 170.757 90.0826 168.422 89.9933 167.764C89.9045 167.111 87.5593 165.12 87.2001 164.664C84.7884 161.601 83.1212 158.302 85.9533 155.023C87.4297 153.314 91.7707 149.861 93.8601 152.033C96.1194 147.465 100.071 144.35 103.148 140.464C106.984 135.618 110.646 130.698 114.237 125.622C117.812 120.568 120.732 115.139 125.471 111.066C130.752 106.527 135.724 106.92 142.21 108.86C142.58 106.356 143.095 106.689 145.515 105.854C147.347 105.221 149.127 104.47 150.928 103.756C152.842 102.995 154.78 102.564 156.737 101.967C159.344 101.171 159.735 101.431 160.159 98.0435C160.672 93.9502 158.921 89.6223 157.792 85.7665C157.235 83.8641 156.848 81.496 155.594 80.2162C154.46 79.0588 152.449 78.5319 151.208 77.2521C140.52 66.2268 140.351 42.686 151.737 32.4392C153.95 30.4474 155.774 27.7679 158.529 26.4231C161.553 24.9462 165.542 23.7519 168.873 23.0559C175.739 21.6222 183.439 22.0773 188.866 26.9068C191.543 29.2886 193.175 33.0744 194.088 36.4562C194.959 39.6865 194.772 45.1464 191.468 40.1542C189.385 37.0055 187.574 33.7942 184.047 32.2367C180.895 30.8452 177.046 30.0938 173.613 30.3891C165.52 31.0846 158.962 33.4625 153.36 39.4562C147.166 46.0833 146.851 56.6638 148.186 65.0908C149.363 62.5983 150.159 58.6517 153.458 58.1757C156.207 57.7789 160.541 61.2913 159.065 64.3151C152.371 62.6075 150.413 72.7377 156.202 73.3478C157.954 73.5323 160.174 70.4104 161.788 71.1374C164.805 72.4964 160.761 77.1793 159.964 78.7213C159.54 78.9821 159.116 79.2429 158.692 79.5042C159.11 80.4746 159.531 81.4435 159.957 82.4105C160.473 83.6436 160.964 84.8797 161.417 86.1376C162.52 89.1988 163.664 92.3552 164.329 95.5442C165.005 98.7866 165.356 102.573 163.759 105.619C162.003 108.967 160.349 108.555 159.001 105.37C155.47 107.597 151.92 109.972 147.77 110.85C152.122 118.157 157.756 124.438 166.227 126.736C173.407 128.684 182.445 128.613 189.296 125.39C196.405 122.047 200.317 114.231 199.47 106.455C199.196 103.937 197.731 95.1901 201.216 101.518C203.126 104.988 203.267 110.617 202.831 114.422C200.747 132.624 182.308 139.434 166.409 135.052C158.252 132.804 152.375 126.786 147.999 119.703C146.978 118.051 146.044 116.346 145.132 114.632C144.768 113.947 144.447 112.991 143.961 112.39C142.055 110.036 143.927 111.348 141.904 111.053C138.772 110.598 133.844 112.997 131.519 114.899C125.21 120.057 121.715 128.309 116.873 134.81C111.718 141.731 105.17 147.891 98.6025 153.413C106.032 161.028 113.461 168.642 120.89 176.256C122.425 174.557 125.342 170.671 125.75 168.398C125.989 167.066 124.915 162.681 128.219 164.633C130.449 165.951 131.295 171.591 131.99 173.898C133.065 177.462 134.874 180.818 136.044 184.345C138.213 190.889 140.886 197.376 143.109 203.966C144.012 206.646 146.589 209.972 144.113 212.241C140.35 215.689 139.232 208.901 138.235 206.308C136.848 208.239 137.028 211.369 136.312 213.621C135.876 214.996 134.545 217.137 134.589 218.492C134.665 220.809 136.767 221.499 138.661 222.794C142.185 225.202 145.801 227.554 149.03 230.36C150.376 231.53 151.616 232.714 152.598 234.22C153.456 235.535 153.715 238.498 154.663 239.413C155.904 240.609 160.489 239.776 162.911 240.036C166.954 240.471 171.052 241.91 174.977 242.944C181.924 244.773 189.068 247.407 196.343 248.384C203.487 249.344 210.192 248.868 217.312 247.589C221.202 246.891 225.379 246.056 228.929 244.185C233.017 242.029 236.642 238.581 240.461 235.977C242.169 234.811 243.918 233.709 245.665 232.604C248.001 231.128 247.39 231.447 247.542 229.101C247.719 226.386 248.851 221.201 247.039 218.784C246.282 217.775 243.959 217.038 242.866 216.304C241.276 215.236 239.851 213.995 238.147 213.136C236.288 212.198 236.233 212.941 235.37 210.64C234.585 208.551 234.068 206.363 233.348 204.251C230.055 194.595 229.204 184.787 227.839 174.704C227.205 170.021 225.649 163.648 227.411 159.085C229.861 152.74 231.911 161.614 232.428 163.889C234.767 159.88 236.111 155.421 238.544 151.464C239.963 149.156 240.657 147.977 241.456 145.448C241.78 144.425 241.909 143.574 242.594 142.724C244.041 140.925 244.256 141.95 245.761 141.906C250.496 141.767 255.151 141.889 259.891 142.108C262.51 142.23 265.13 142.294 267.768 142.284C269.053 142.279 270.354 142.217 271.638 142.291C272.33 142.283 273.019 142.335 273.704 142.446C275.119 143.106 275.658 142.537 275.324 140.737C276.555 138.16 276.473 134.047 276.909 131.235C277.348 128.405 277.754 125.569 278.121 122.728C278.317 121.209 279.962 115.479 279.089 114.231C278.224 112.994 273.714 113.271 272.38 113.049C263.51 111.574 255.259 107.916 246.962 104.92C242.878 103.445 239.001 101.453 235.083 99.6433C233.043 98.7011 231.116 96.7608 228.966 96.1566C226.254 95.3941 222.653 96.6132 219.949 97.0721C214.797 97.9468 209.828 98.7127 204.6 98.9973C202.754 99.0979 199.241 99.6161 197.574 98.346C194.227 95.7953 198.038 94.3037 200.226 93.9818C209.902 92.5577 219.549 91.7394 229.299 91.1449C229.757 91.1172 231.431 90.7768 231.988 90.9526C233.258 91.3538 232.746 91.819 233.507 92.2328C234.916 92.9992 236.525 93.5636 238.313 94.0391C243.42 95.396 248.562 97.6729 253.685 99.4621C262.904 102.681 273.918 107.814 283.138 106.911C285.413 106.689 287.284 106.404 289.663 106.635C292.448 106.906 294.074 108.335 296.215 108.751C299.082 109.308 303.184 108.89 306.202 108.996C309.081 109.098 311.961 109.232 314.84 109.232C312.311 104.144 310.771 99.3669 309.35 93.9026C308.575 90.9225 307.409 88.2158 307.914 85.0773C308.153 83.596 308.745 82.2041 309.39 80.866C310.363 78.8461 310.64 79.2686 310.986 77.0316C311.461 73.9529 310.779 70.7066 311.153 67.6187C311.536 64.4497 313.93 61.625 314.196 58.5953C314.338 56.9834 313.437 55.6677 313.707 53.9289C313.948 52.3738 314.868 50.7434 315.695 49.434C317.62 46.383 319.964 44.653 323.217 43.4101C325.831 42.4111 329.169 41.4946 331.811 43.1124C334.507 44.7628 334.312 48.0843 335.604 50.5078C338.381 55.7191 344.788 60.3763 349.896 63.0378C354.589 65.4827 359.643 67.0272 364.675 68.6216C367.737 69.592 370.885 70.2841 373.894 71.3929C376.061 72.1914 379.593 74.1278 381.799 72.9514C383.721 71.9262 385.964 68.7975 387.866 67.3448C390.092 65.6454 393.061 63.9868 395.864 65.4672C398.667 66.947 398.437 72.4021 400.617 73.4279C401.377 73.7854 403.633 72.7382 404.669 72.9034C406.341 73.1695 407.493 74.2055 408.496 75.4809C412.241 80.2468 413.401 87.8064 413.564 93.6816C413.646 96.6161 413.575 100.266 411.784 102.757C409.695 105.664 405.741 105.736 403.06 107.781C400.915 109.417 399.395 112.091 397.218 113.834C395.877 114.908 395.36 114.083 394.805 115.757C394.443 116.846 395.174 118.97 395.389 120.024C396.722 126.523 399.22 132.518 401.589 138.709C402.705 141.627 403.652 144.545 404.162 147.636C404.496 149.665 404.11 151.439 404.272 153.391C404.387 154.78 404.977 155.98 404.847 157.405C404.572 160.423 402.934 163.088 401.893 165.742C400.706 168.768 402.336 174.008 403.532 177.137C406.398 184.634 410.428 192.208 414.008 199.412C417.525 206.487 420.141 214.023 424.238 220.82C428.218 227.422 432.9 233.885 437.428 240.129C439.946 243.602 442.619 246.905 444.901 250.548C445.4 251.345 448.806 257.95 449.69 257.721C448.607 246.194 449.702 234.205 450.186 222.685C450.792 208.265 448.958 195.203 444.903 181.438C443.955 178.22 443.11 174.927 442.443 171.638C441.976 169.336 440.658 167.443 443.894 168.45C449.252 170.116 453.967 180.238 456.691 184.644C462.792 194.511 467.888 207.67 468.571 219.244C469.243 230.604 468.664 241.473 467.245 252.666C466.545 258.187 465.414 264.343 463.685 269.623C462.796 272.34 461.728 275.153 460.544 277.756C460.044 278.855 458.946 280.096 458.757 281.303C458.457 283.218 459.859 285.802 460.21 287.693C461.356 293.881 461.62 300.294 461.229 306.574C461.02 309.942 460.555 312.954 459.457 316.122C458.057 320.157 458.708 323.24 459.29 327.4C459.913 331.851 460.51 341.97 455.884 344.5C455.558 344.466 455.23 344.432 454.903 344.399C454.076 343.445 453.343 343.502 452.702 344.569C451.505 344.959 450.337 345.965 449.077 346.398C446.153 347.403 442.997 347.464 439.947 347.905C433.978 348.77 428.029 350.296 422.164 350.48C415.219 350.699 407.975 350.427 401.185 349.208C399.781 348.956 398.141 348.291 396.737 348.163C394.832 347.989 393.495 349.257 391.528 348.959C388.48 348.497 386.554 345.269 386.355 342.624C385.72 334.196 390.393 330.331 398.029 328.834C393.095 321.765 387.414 315.965 386.101 306.887C384.809 297.954 387.611 287.616 392.702 280.459C397.589 273.589 405.927 268.996 414.526 270.74C418.517 271.549 437.345 277.111 433.706 283.421C432.899 280.535 427.935 281.093 425.537 280.676C421.558 279.985 417.58 278.942 413.543 279.157C405.604 279.579 397.93 284.279 394.086 291.392C389.654 299.594 391.676 307.779 397.012 314.781C401.891 321.184 406.921 327.911 413.482 332.534C412.213 334.552 412.672 335.185 410.153 334.824C408.423 334.575 406.805 333.226 405.056 332.89C401.431 332.193 395.725 335.166 393.486 338.138C392.162 339.894 392.211 340.762 394.651 341.844C396.452 342.642 399.288 342.229 401.222 342.402C406.033 342.832 410.937 342.976 415.764 342.959C424.119 342.928 431.89 341.587 440.158 340.718C443.823 340.333 447.656 340.777 451.242 339.427C456.099 337.6 454.909 332.232 454.279 327.883C453.656 323.575 454.29 320.234 454.967 315.969C455.26 314.116 455.808 311.977 455.42 310.112C454.96 307.896 454.134 306.916 454.239 304.445C454.614 295.65 453.511 286.389 451.182 277.901C446.123 259.467 433.77 244.917 423.468 229.249C420.558 224.823 417.499 220.63 415.182 215.837C412.988 211.297 411.477 206.494 409.297 201.941C404.494 191.905 399.938 181.568 397.132 170.773C393.951 172.026 390.523 173.868 387.113 174.31C383.25 174.811 379.12 171.689 376.684 168.94C371.127 162.671 369.86 154.168 370.275 146.09C370.398 143.698 370.546 141.288 370.975 138.928C371.253 137.397 373.053 133.69 372.643 132.263C372.203 130.736 369.646 129.409 368.86 127.897C367.86 125.971 367.744 123.493 367.798 121.37C367.847 119.431 368.917 109.938 371.989 113.818C373.748 116.041 371.176 124.422 372.962 125.562C374.569 126.589 376.782 125.335 378.448 127.681C380.248 130.217 379.284 133.342 378.653 136.042C377.349 141.627 376.124 147.657 376.158 153.392C376.187 158.615 377.12 165.217 382.823 167.329C385.704 168.396 387.891 167.662 390.04 165.675C390.532 165.108 391.035 164.55 391.547 164C392.017 163.192 392.738 163.091 393.711 163.699C394.431 163.127 395.497 159.174 395.858 158.29C400.274 147.46 393.311 135.024 390.758 124.398C389.197 117.898 387.835 111.378 390.996 105.105C391.507 104.09 392.917 103.207 392.071 101.75C391.849 101.367 389.721 101.187 389.217 100.742C387.575 99.2921 387.918 96.5893 387.918 94.6539C384.122 95.8254 383.028 92.87 383.521 89.2479C380.69 89.6971 378.723 90.5636 377.675 87.2852C376.745 84.378 378.149 81.4134 379.08 78.7043C365.979 77.2992 351.83 75.4988 341.389 66.4526C338.815 64.2219 336.674 61.4142 334.89 58.5055C334.567 57.9795 333.049 54.2767 332.546 54.0834C331.05 53.5088 329.796 56.4365 328.467 57.1616C327.286 57.8056 325.606 58.1606 324.294 58.5531C323.059 58.9227 318.705 58.9965 317.932 59.6381C316.002 61.2427 316.154 70.5197 316.139 72.6727C316.087 80.088 317.741 87.4776 320.8 94.229C323.681 100.587 328.089 109.332 333.852 113.493C335.308 114.545 336.619 115.09 338.464 115.003C339.782 114.942 341.089 114.018 342.462 114.498C345.936 115.714 344.693 118.131 342.023 119.273C334.39 122.54 327.957 115.358 323.544 110.341C322.251 116.294 328.244 123.338 331.415 128.194C333.436 131.29 335.434 134.388 337.356 137.546C338.752 139.84 341.496 144.076 336.622 142.304C334.271 154.651 327.819 165.449 324.524 177.448C321.141 189.765 318.193 203.828 318.193 216.655C320.768 214.861 322.067 206.685 325.532 212.943C325.906 213.62 325.789 214.74 326.283 215.332C326.966 216.15 327.788 215.923 328.835 216.506C330.495 217.43 331.566 219.273 330.082 220.871C331.993 220.426 333.995 220.653 334.407 222.914C334.638 224.184 332.78 230.065 331.394 230.545C327.168 232.009 322.483 223.567 321.338 220.882C318.698 223.533 315.657 225.573 313.223 221.284C311.41 218.088 312.462 213.253 312.718 209.774C313.234 202.766 313.906 195.93 314.917 188.989C316.812 175.974 321.621 164.399 327.528 152.684C329.155 149.46 330.957 146.159 332.409 142.86C334.6 137.882 331.172 139.056 327.821 139.779C321.257 141.196 314.383 142.295 307.749 142.797C304.287 143.058 299.853 143.214 296.525 144.216C294.186 144.92 294.587 144.434 293.648 146.941C293.228 148.063 292.753 149.256 292.012 150.217C288.232 155.118 278.442 154.298 273.035 153.933C273.363 151.866 273.686 149.798 274.026 147.733C269.864 148.711 264.92 149.393 260.633 149.343C258.325 149.316 255.871 148.964 253.569 148.772C251.872 148.631 248.654 147.427 247.056 147.895C245.204 148.439 242.403 155.14 241.344 157.3C239.356 161.358 235.803 165.866 234.548 170.139C233.436 173.927 235.706 180.462 236.419 184.232C237.449 189.682 238.388 195.143 240.115 200.428C241.367 204.259 242.81 209.541 246.655 211.452C250.485 213.357 253.238 214.428 257.384 214.041C264.684 213.358 272.452 214.479 279.659 215.899C287.081 217.362 293.877 218.02 300.925 220.626C316.91 226.539 327.09 244.75 321.062 261.434C317.596 271.03 311.885 278.162 303.508 284.099C299.24 287.124 294.196 289.578 289.517 291.909C287.368 292.98 285.256 294.278 283.066 295.229C281.465 295.924 278.715 297.524 276.976 297.699C278.906 298.618 280.614 297.758 282.622 297.473C285.462 297.068 288.363 296.982 291.214 296.629C295.652 296.079 300.024 295.664 304.464 295.113C308.253 294.643 312.528 294.476 316.294 295.018C318.113 295.279 320.851 295.796 322.471 296.673C323.745 297.363 324.914 298.952 326.284 299.739C327.791 293.546 327.086 285.913 327.156 279.549C327.214 274.354 327.446 269.274 327.934 264.103C328.481 258.32 324.946 251.744 323.641 246.08C322.419 240.779 319.164 234.06 320.362 228.527C321.873 221.552 325.827 234.082 326.371 235.874C328.073 241.479 330.049 246.951 331.935 252.49C334.179 259.079 336.439 265.464 339.707 271.638C342.427 276.776 345.552 282.803 351.141 285.309C350.68 277.753 350.167 270.757 347.028 263.79C344.052 257.184 339.512 251.31 337.527 244.231C336.542 240.713 336.397 237.116 336.348 233.482C336.315 231.038 336.427 227.752 339.047 230.388C341.125 232.477 341.528 239.144 342.438 241.958C342.876 243.312 343.483 244.555 343.967 245.872C344.185 246.465 345.652 249.356 345.652 249.743C347.165 254.311 350.509 258.692 352.86 262.896Z" fill="black"/>
<path fill-rule="evenodd" clip-rule="evenodd" d="M192.422 96.3711C192.566 98.1404 193.591 102.726 192.278 104.126C190.537 105.984 189.712 103.595 188.959 101.711C187.386 97.7737 186.604 90.1501 189.713 86.8693C192.959 83.4434 199.372 83.3511 202.836 79.9392C204.227 78.5686 204.093 78.8547 203.972 76.7119C203.904 75.502 203.122 73.8945 202.744 72.807C201.761 69.9814 200.683 67.1897 199.655 64.3805C197.859 65.1999 195.274 67.7273 193.504 65.6088C191.868 63.6501 194.59 60.4407 196.485 59.8681C195.495 57.7034 190.834 58.1036 189.945 54.9239C189.174 52.1604 191.391 53.2585 191.876 52.1701C192.446 50.8894 191.278 49.1579 191.879 47.9777C193.967 43.8801 196.278 51.4144 197.318 52.7592C199.252 55.2605 202.621 55.8069 202.918 59.5903C203.101 61.9196 202.926 63.0027 203.885 65.2902C204.768 67.3961 205.817 69.4155 206.558 71.5826C207.672 74.8478 209.392 80.7901 207.213 83.9519C205.375 86.6187 200.913 88.6517 198.012 89.7921C196.559 90.3628 194.544 90.7105 193.369 91.8223C191.834 93.2725 192.312 94.1637 192.422 96.3711Z" fill="black"/>
<path fill-rule="evenodd" clip-rule="evenodd" d="M343.172 195.108C342.841 194.586 342.509 194.064 342.178 193.542C339.882 195.996 337.339 197.005 335.019 193.888C332.629 190.678 333.526 185.866 334.456 182.361C334.934 180.557 337.352 173.445 338.901 178.863C339.243 180.059 338.1 182.721 337.893 183.891C337.487 186.188 337.166 188.39 337.453 190.729C340.144 188.318 341.463 182.206 344.195 188.553C345.185 190.854 345.294 194.644 347.931 191.148C349.339 189.282 349.43 185.835 350.089 183.636C354.585 184.711 353.765 191.364 352.265 194.606C349.875 199.767 346.623 198.105 343.172 195.108Z" fill="black"/>
<path fill-rule="evenodd" clip-rule="evenodd" d="M358.913 79.3268C360.512 81.9956 357.487 86.8762 356.939 89.6164C359.617 89.306 366.247 82.8402 368.113 83.9063C371.997 86.1248 363.792 93.8627 362.216 94.9967C349.616 104.058 351.888 77.846 358.913 79.3268Z" fill="black"/>
<path fill-rule="evenodd" clip-rule="evenodd" d="M343.114 109.047C347.821 107.736 354.168 116.189 351.115 120.376C348.924 123.379 346.218 121.661 345.532 119.018C345.182 117.67 345.492 116.045 345.035 114.541C344.472 112.69 343.717 110.887 343.114 109.047Z" fill="black"/>
<path fill-rule="evenodd" clip-rule="evenodd" d="M198.337 72.6078C201.917 75.6185 194.603 82.9585 190.936 77.211C189.927 75.6302 189.744 74.1872 191.239 73.6034C191.994 73.3091 193.775 74.2732 194.841 74.1027C196.009 73.9157 197.278 73.0935 198.337 72.6078Z" fill="black"/>
<path fill-rule="evenodd" clip-rule="evenodd" d="M186.037 60.5688C184.648 58.8349 180.744 48.1694 185.582 50.5449C188.011 51.7377 190.018 60.8553 186.037 60.5688Z" fill="black"/>
<path fill-rule="evenodd" clip-rule="evenodd" d="M345.756 289.96C345.619 288.614 345.482 287.268 345.344 285.922C347.13 286.833 350.714 287.733 351.336 289.773C352.504 293.606 347.08 290.54 345.756 289.96Z" fill="black"/>
<path fill-rule="evenodd" clip-rule="evenodd" d="M397.605 127.615C396.541 126.177 393.233 114.182 396.103 114.456C396.606 118.808 396.709 123.327 397.605 127.615Z" fill="black"/>
<path fill-rule="evenodd" clip-rule="evenodd" d="M352.86 262.896C350.509 258.693 347.164 254.311 345.652 249.743C349.198 252.616 351.968 258.486 352.86 262.896Z" fill="black"/>
<path fill-rule="evenodd" clip-rule="evenodd" d="M449.26 253.152C449.403 254.675 449.546 256.198 449.69 257.722C447.56 258.272 449.13 253.655 449.26 253.152Z" fill="black"/>
<path fill-rule="evenodd" clip-rule="evenodd" d="M345.656 249.75C344.648 248.652 344.217 247.302 343.967 245.873C344.53 247.164 345.093 248.457 345.656 249.75Z" fill="black"/>
<path fill-rule="evenodd" clip-rule="evenodd" d="M357.847 318.717C357.885 317.361 357.922 316.006 357.96 314.653C357.922 316.009 357.885 317.363 357.847 318.717Z" fill="black"/>
<path fill-rule="evenodd" clip-rule="evenodd" d="M198.595 98.7743C199.497 98.8865 200.399 98.9987 201.301 99.1109C200.589 99.4446 198.912 99.888 198.595 98.7743Z" fill="black"/>
<path fill-rule="evenodd" clip-rule="evenodd" d="M378.469 332.943C379.408 332.801 380.349 332.479 381.271 332.998C380.336 332.98 379.402 332.962 378.469 332.943Z" fill="black"/>
<path fill-rule="evenodd" clip-rule="evenodd" d="M351.652 302.321C351.665 303.325 351.677 304.328 351.689 305.329C351.675 304.324 351.664 303.323 351.652 302.321Z" fill="black"/>
<path fill-rule="evenodd" clip-rule="evenodd" d="M371.044 286.699C370.985 287.77 370.926 288.84 370.867 289.909C370.926 288.837 370.985 287.768 371.044 286.699Z" fill="black"/>
<path fill-rule="evenodd" clip-rule="evenodd" d="M358.276 290.889C358.225 289.957 358.174 289.026 358.124 288.096C358.175 289.028 358.226 289.959 358.276 290.889Z" fill="black"/>
<path fill-rule="evenodd" clip-rule="evenodd" d="M386.165 299.107C386.114 299.937 386.064 300.767 386.014 301.595C386.064 300.764 386.114 299.935 386.165 299.107Z" fill="black"/>
<path fill-rule="evenodd" clip-rule="evenodd" d="M217.66 320.068C216.747 320.528 215.835 320.574 214.925 320.062C215.837 320.064 216.749 320.066 217.66 320.068Z" fill="black"/>
<path fill-rule="evenodd" clip-rule="evenodd" d="M311.104 69.3579C311.117 70.1782 311.13 70.9985 311.142 71.8155C311.129 70.9942 311.116 70.1763 311.104 69.3579Z" fill="black"/>
<path fill-rule="evenodd" clip-rule="evenodd" d="M220.444 91.7394C219.508 91.8103 218.573 91.8807 217.639 91.9516C218.574 91.8807 219.509 91.8103 220.444 91.7394Z" fill="black"/>
<path fill-rule="evenodd" clip-rule="evenodd" d="M413.571 94.8963C413.566 94.0867 413.561 93.277 413.558 92.4689C413.987 93.277 413.995 94.0857 413.571 94.8963Z" fill="black"/>
<path fill-rule="evenodd" clip-rule="evenodd" d="M192.422 96.3711C192.379 95.511 192.336 94.6513 192.294 93.7926C192.337 94.6533 192.38 95.5119 192.422 96.3711Z" fill="black"/>
<path fill-rule="evenodd" clip-rule="evenodd" d="M422.163 350.48C422.795 350.485 423.427 350.489 424.052 350.494C423.418 350.489 422.791 350.485 422.163 350.48Z" fill="black"/>
<path fill-rule="evenodd" clip-rule="evenodd" d="M173.625 22.4858C172.795 22.5567 171.964 22.6276 171.134 22.6981C171.964 22.6276 172.795 22.5567 173.625 22.4858Z" fill="black"/>
<path fill-rule="evenodd" clip-rule="evenodd" d="M255.532 339.779C256.067 339.779 256.603 339.778 257.132 339.779C256.594 339.779 256.063 339.779 255.532 339.779Z" fill="black"/>
<path fill-rule="evenodd" clip-rule="evenodd" d="M338.464 115.004C337.652 114.922 336.84 114.841 336.029 114.759C336.841 114.841 337.653 114.922 338.464 115.004Z" fill="black"/>
<path fill-rule="evenodd" clip-rule="evenodd" d="M375.373 338.361C375.423 337.692 375.473 337.022 375.523 336.355C375.473 337.026 375.423 337.694 375.373 338.361Z" fill="black"/>
<path fill-rule="evenodd" clip-rule="evenodd" d="M287.477 106.428C286.678 106.421 285.879 106.414 285.08 106.407C285.883 105.942 286.681 106.075 287.477 106.428Z" fill="black"/>
<path fill-rule="evenodd" clip-rule="evenodd" d="M180.815 22.7097C180.009 22.6839 179.158 23.104 178.415 22.4649C179.215 22.5465 180.015 22.6281 180.815 22.7097Z" fill="black"/>
<path fill-rule="evenodd" clip-rule="evenodd" d="M159.053 101.755C158.281 101.826 157.509 101.896 156.737 101.967C157.509 101.896 158.281 101.826 159.053 101.755Z" fill="black"/>
<path fill-rule="evenodd" clip-rule="evenodd" d="M207.706 319.374C206.892 319.459 206.078 319.544 205.266 319.629C206.079 319.544 206.893 319.459 207.706 319.374Z" fill="black"/>
<path fill-rule="evenodd" clip-rule="evenodd" d="M227.955 91.2492C227.162 91.2662 226.369 91.2832 225.576 91.3002C226.363 90.985 227.15 90.6877 227.955 91.2492Z" fill="black"/>
<path fill-rule="evenodd" clip-rule="evenodd" d="M357.818 308.394C357.814 307.705 357.809 307.017 357.805 306.33C357.809 307.019 357.814 307.706 357.818 308.394Z" fill="black"/>
<path fill-rule="evenodd" clip-rule="evenodd" d="M449.552 250.035C449.466 250.867 449.38 251.698 449.295 252.53C449.38 251.699 449.466 250.867 449.552 250.035Z" fill="black"/>
<path fill-rule="evenodd" clip-rule="evenodd" d="M346.617 303.654C346.557 302.946 346.499 302.237 346.44 301.531C346.499 302.24 346.558 302.947 346.617 303.654Z" fill="black"/>
<path fill-rule="evenodd" clip-rule="evenodd" d="M79.7739 297.148C79.6288 297.854 79.1143 297.993 78.2305 297.565L79.7739 297.148Z" fill="black"/>
<path fill-rule="evenodd" clip-rule="evenodd" d="M376.231 297.462C376.183 296.847 376.137 296.232 376.09 295.618C376.138 296.234 376.184 296.848 376.231 297.462Z" fill="black"/>
<path fill-rule="evenodd" clip-rule="evenodd" d="M210.016 92.7316C209.349 92.8224 208.681 92.9127 208.013 93.0035C208.681 92.9127 209.349 92.8224 210.016 92.7316Z" fill="black"/>
<path fill-rule="evenodd" clip-rule="evenodd" d="M351.25 292.218C351.249 292.822 351.249 293.426 351.247 294.028C351.249 293.423 351.249 292.82 351.25 292.218Z" fill="black"/>
<path fill-rule="evenodd" clip-rule="evenodd" d="M310.984 75.32C310.984 75.8916 310.985 76.4628 310.985 77.0315C310.985 76.4594 310.984 75.8897 310.984 75.32Z" fill="black"/>
<path fill-rule="evenodd" clip-rule="evenodd" d="M67.5003 209.205C67.4343 209.808 67.3683 210.41 67.3027 211.01C67.3687 210.407 67.4343 209.806 67.5003 209.205Z" fill="black"/>
<path fill-rule="evenodd" clip-rule="evenodd" d="M467.398 250.61C467.363 250.043 467.327 249.476 467.292 248.911C467.327 249.479 467.363 250.045 467.398 250.61Z" fill="black"/>
<path fill-rule="evenodd" clip-rule="evenodd" d="M122.62 325.478C121.93 325.467 121.24 325.456 120.551 325.445C121.249 324.967 121.936 325.069 122.62 325.478Z" fill="black"/>
<path fill-rule="evenodd" clip-rule="evenodd" d="M202.935 60.4421C202.924 59.8734 202.913 59.3046 202.902 58.7379C203.256 59.3008 203.37 59.8661 202.935 60.4421Z" fill="black"/>
<path fill-rule="evenodd" clip-rule="evenodd" d="M147.867 53.2288C147.915 52.6679 147.963 52.1069 148.011 51.5493C147.963 52.1113 147.915 52.6698 147.867 53.2288Z" fill="black"/>
<path fill-rule="evenodd" clip-rule="evenodd" d="M375.825 249.596C375.801 248.978 375.777 248.36 375.754 247.742C375.778 248.361 375.801 248.979 375.825 249.596Z" fill="black"/>
<path fill-rule="evenodd" clip-rule="evenodd" d="M371.385 281.537C371.368 282.12 371.351 282.703 371.333 283.283C371.349 282.698 371.367 282.118 371.385 281.537Z" fill="black"/>
<path fill-rule="evenodd" clip-rule="evenodd" d="M292.001 337.77C292.434 337.769 292.866 337.768 293.293 337.769C292.86 337.77 292.431 337.77 292.001 337.77Z" fill="black"/>
<path fill-rule="evenodd" clip-rule="evenodd" d="M81.7017 338.066C82.1331 338.077 82.5641 338.089 82.9903 338.101C82.5573 338.09 82.1293 338.078 81.7017 338.066Z" fill="black"/>
<path fill-rule="evenodd" clip-rule="evenodd" d="M342.568 286.89C338.361 283.638 334.694 278.774 333.84 273.566C335.649 275.611 337.17 277.894 338.979 279.937C339.698 280.749 340.58 281.448 341.27 282.275C342.845 284.161 342.568 284.244 342.568 286.89Z" fill="black"/>
<path fill-rule="evenodd" clip-rule="evenodd" d="M327.79 264.904C325.771 260.25 324.019 254.605 324.37 249.471C325.763 254.132 328.995 259.988 327.79 264.904Z" fill="black"/>
<path fill-rule="evenodd" clip-rule="evenodd" d="M334.564 292.27C334.53 293.621 334.495 294.972 334.463 296.32C334.498 294.968 334.531 293.619 334.564 292.27Z" fill="black"/>
<path fill-rule="evenodd" clip-rule="evenodd" d="M67.5725 328.994C68.9524 329.076 70.3327 329.158 71.7126 329.24C70.3264 329.259 68.9218 329.595 67.5725 328.994Z" fill="black"/>
<path fill-rule="evenodd" clip-rule="evenodd" d="M334.556 287.807C334.561 288.959 334.566 290.111 334.571 291.261C334.566 290.108 334.561 288.957 334.556 287.807Z" fill="black"/>
<path fill-rule="evenodd" clip-rule="evenodd" d="M277.86 154.223C277.083 154.183 276.306 154.142 275.535 154.102C276.314 154.142 277.088 154.183 277.86 154.223Z" fill="black"/>
<path fill-rule="evenodd" clip-rule="evenodd" d="M290.498 125.567C290.495 124.632 290.492 123.697 290.489 122.764C290.491 123.699 290.495 124.633 290.498 125.567Z" fill="black"/>
<path fill-rule="evenodd" clip-rule="evenodd" d="M273.814 149.02C273.779 148.362 273.429 148.031 272.764 148.027C274.098 147.305 274.449 147.636 273.814 149.02Z" fill="black"/>
<path fill-rule="evenodd" clip-rule="evenodd" d="M313.395 201.033C313.446 200.201 313.499 199.369 313.551 198.539C313.498 199.371 313.446 200.202 313.395 201.033Z" fill="black"/>
<path fill-rule="evenodd" clip-rule="evenodd" d="M87.1643 329.582C88.0952 329.517 89.0261 329.452 89.957 329.388C89.0256 329.452 88.0952 329.517 87.1643 329.582Z" fill="black"/>
<path fill-rule="evenodd" clip-rule="evenodd" d="M282.682 216.631L285.452 216.611C284.528 216.618 283.605 216.624 282.682 216.631Z" fill="black"/>
<path fill-rule="evenodd" clip-rule="evenodd" d="M309.121 115.248C308.477 115.254 307.833 115.259 307.195 115.264C307.842 115.259 308.481 115.254 309.121 115.248Z" fill="black"/>
<path fill-rule="evenodd" clip-rule="evenodd" d="M443.402 340.369C444.209 340.365 445.017 340.362 445.824 340.359C445.019 340.867 444.211 340.854 443.402 340.369Z" fill="black"/>
<path fill-rule="evenodd" clip-rule="evenodd" d="M104.374 228.518C103.826 228.533 103.279 228.549 102.737 228.564C103.286 228.549 103.83 228.533 104.374 228.518Z" fill="black"/>
<path fill-rule="evenodd" clip-rule="evenodd" d="M395.178 107.473C395.697 107.973 395.015 109.123 394.398 108.727C394.658 108.309 394.918 107.891 395.178 107.473Z" fill="black"/>
<path fill-rule="evenodd" clip-rule="evenodd" d="M142.056 279.158C142.079 278.45 142.102 277.742 142.125 277.036C142.102 277.744 142.079 278.451 142.056 279.158Z" fill="black"/>
<path fill-rule="evenodd" clip-rule="evenodd" d="M327.156 279.549C327.194 278.811 327.231 278.072 327.268 277.335C327.23 278.074 327.193 278.811 327.156 279.549Z" fill="black"/>
<path fill-rule="evenodd" clip-rule="evenodd" d="M456.333 202.608C456.363 203.348 456.394 204.087 456.424 204.824C456.394 204.084 456.363 203.346 456.333 202.608Z" fill="black"/>
<path fill-rule="evenodd" clip-rule="evenodd" d="M206.893 286.323C207.72 286.394 208.546 286.465 209.373 286.535C208.546 286.465 207.719 286.394 206.893 286.323Z" fill="black"/>
<path fill-rule="evenodd" clip-rule="evenodd" d="M320.302 229.627C320.342 228.893 320.383 228.158 320.423 227.426C320.383 228.16 320.342 228.894 320.302 229.627Z" fill="black"/>
<path fill-rule="evenodd" clip-rule="evenodd" d="M176.617 243.596C177.441 243.672 178.265 243.748 179.09 243.824C178.265 243.747 177.441 243.672 176.617 243.596Z" fill="black"/>
<path fill-rule="evenodd" clip-rule="evenodd" d="M249.544 307.806C249.013 307.806 248.483 307.806 247.958 307.806C248.49 307.806 249.018 307.806 249.544 307.806Z" fill="black"/>
<path fill-rule="evenodd" clip-rule="evenodd" d="M296.358 128.329C296.327 129.015 296.295 129.701 296.265 130.383C296.297 129.697 296.328 129.012 296.358 128.329Z" fill="black"/>
<path fill-rule="evenodd" clip-rule="evenodd" d="M308.117 294.782C308.933 294.202 309.726 294.585 310.523 294.836C309.72 294.818 308.918 294.8 308.117 294.782Z" fill="black"/>
<path fill-rule="evenodd" clip-rule="evenodd" d="M212.74 98.4293C212.203 98.4074 211.667 98.3851 211.136 98.3608C211.675 98.3827 212.207 98.406 212.74 98.4293Z" fill="black"/>
<path fill-rule="evenodd" clip-rule="evenodd" d="M342.795 307.401C342.747 306.718 342.699 306.035 342.651 305.354C342.699 306.038 342.747 306.72 342.795 307.401Z" fill="black"/>
<path fill-rule="evenodd" clip-rule="evenodd" d="M298.869 230.279C298.427 230.282 297.984 230.285 297.548 230.289C297.992 230.287 298.43 230.283 298.869 230.279Z" fill="black"/>
<path fill-rule="evenodd" clip-rule="evenodd" d="M317.521 255.095C317.521 254.526 317.522 253.955 317.522 253.389C317.522 253.959 317.521 254.527 317.521 255.095Z" fill="black"/>
<path fill-rule="evenodd" clip-rule="evenodd" d="M289.229 296.887C289.892 296.801 290.554 296.715 291.215 296.629C290.553 296.715 289.891 296.801 289.229 296.887Z" fill="black"/>
<path fill-rule="evenodd" clip-rule="evenodd" d="M260.597 213.981C261.315 213.977 262.032 213.972 262.75 213.968C262.035 214.389 261.317 214.31 260.597 213.981Z" fill="black"/>
<path fill-rule="evenodd" clip-rule="evenodd" d="M297.758 144.227C297.343 144.224 296.929 144.22 296.52 144.216C296.936 144.22 297.347 144.224 297.758 144.227Z" fill="black"/>
<path fill-rule="evenodd" clip-rule="evenodd" d="M175.255 249.934C174.827 249.929 174.4 249.923 173.978 249.916C174.407 249.923 174.831 249.929 175.255 249.934Z" fill="black"/>
<path fill-rule="evenodd" clip-rule="evenodd" d="M92.6672 221.882C93.3831 221.889 94.099 221.897 94.8149 221.904C94.0947 222.309 93.3788 222.319 92.6672 221.882Z" fill="black"/>
<path fill-rule="evenodd" clip-rule="evenodd" d="M456.402 223.067C456.356 223.613 456.311 224.16 456.268 224.704C456.313 224.156 456.357 223.611 456.402 223.067Z" fill="black"/>
<path fill-rule="evenodd" clip-rule="evenodd" d="M274.147 310.91C274.208 310.313 274.269 309.716 274.329 309.121C274.268 309.719 274.208 310.315 274.147 310.91Z" fill="black"/>
<path fill-rule="evenodd" clip-rule="evenodd" d="M158.39 239.798C159.114 239.808 159.837 239.818 160.561 239.829C159.83 240.332 159.111 240.015 158.39 239.798Z" fill="black"/>
<path fill-rule="evenodd" clip-rule="evenodd" d="M323.313 135.019C324.017 134.94 324.72 134.86 325.424 134.78C324.72 134.86 324.017 134.94 323.313 135.019Z" fill="black"/>
<path fill-rule="evenodd" clip-rule="evenodd" d="M264.516 326.302C264.58 326.929 264.643 327.556 264.706 328.181C264.643 327.554 264.579 326.928 264.516 326.302Z" fill="black"/>
<path fill-rule="evenodd" clip-rule="evenodd" d="M327.168 285.065C327.167 284.48 327.166 283.895 327.166 283.313C327.166 283.899 327.167 284.482 327.168 285.065Z" fill="black"/>
<path fill-rule="evenodd" clip-rule="evenodd" d="M72.0552 329.323C72.7361 329.413 73.4171 329.503 74.0975 329.592C73.4166 329.503 72.7356 329.413 72.0552 329.323Z" fill="black"/>
<path fill-rule="evenodd" clip-rule="evenodd" d="M84.8298 329.599C85.502 329.049 86.1845 329.218 86.8693 329.57C86.1893 329.58 85.5093 329.589 84.8298 329.599Z" fill="black"/>
<path fill-rule="evenodd" clip-rule="evenodd" d="M207.667 249.017C208.332 248.935 208.998 248.853 209.663 248.772C208.997 248.853 208.332 248.935 207.667 249.017Z" fill="black"/>
<path fill-rule="evenodd" clip-rule="evenodd" d="M281.656 332.696C282.334 332.605 283.013 332.515 283.691 332.424C283.012 332.515 282.334 332.605 281.656 332.696Z" fill="black"/>
<path fill-rule="evenodd" clip-rule="evenodd" d="M257.923 333.751C258.615 333.662 259.307 333.573 259.999 333.484C259.307 333.573 258.615 333.662 257.923 333.751Z" fill="black"/>
<path fill-rule="evenodd" clip-rule="evenodd" d="M296.021 132.476C295.991 133.035 295.96 133.595 295.93 134.15C295.961 133.59 295.991 133.033 296.021 132.476Z" fill="black"/>
<path fill-rule="evenodd" clip-rule="evenodd" d="M133.039 265.78C133.1 265.186 133.162 264.592 133.224 264.001C133.161 264.595 133.1 265.188 133.039 265.78Z" fill="black"/>
<path fill-rule="evenodd" clip-rule="evenodd" d="M290.678 118.016C290.696 117.434 290.714 116.851 290.732 116.272C290.715 116.855 290.696 117.436 290.678 118.016Z" fill="black"/>
<path fill-rule="evenodd" clip-rule="evenodd" d="M158.513 259.178C158.574 259.772 158.635 260.367 158.696 260.959C158.635 260.364 158.574 259.771 158.513 259.178Z" fill="black"/>
<path fill-rule="evenodd" clip-rule="evenodd" d="M160.806 239.804C161.508 239.881 162.21 239.958 162.911 240.036C162.209 239.958 161.507 239.881 160.806 239.804Z" fill="black"/>
<path fill-rule="evenodd" clip-rule="evenodd" d="M272.53 326.462C272.93 327.635 272.783 330.366 271.648 331.194C269.293 332.911 269.051 329.775 268.584 328.081C267.287 323.382 265.2 318.135 264.668 313.304C264.505 311.822 264.417 309.046 266.376 308.546C268.266 308.065 269.224 311.062 269.876 312.602C271.685 316.874 272.735 321.83 272.53 326.462Z" fill="black"/>
<path fill-rule="evenodd" clip-rule="evenodd" d="M272.53 326.462C272.556 325.854 272.584 325.248 272.61 324.644C272.583 325.251 272.556 325.856 272.53 326.462Z" fill="black"/>
</svg>
